<svg xmlns="http://www.2000/svg" viewBox="0 0 512 512">
  <rect width="512" height="512" fill="#0d1117" rx="112" ry="112" />
  <path d="M256 80c-97 0-176 79-176 176s79 176 176 176 176-79 176-176S353 80 256 80zm0 312c-75 0-136-61-136-136S181 120 256 120s136 61 136 136-61 136-136 136z" fill="#58a6ff"/>
  <path d="M256 152a16 16 0 00-16 16v88H184a16 16 0 000 32h72v48a16 16 0 0032 0v-48h56a16 16 0 000-32h-56v-88a16 16 0 00-16-16z" fill="#a371f7"/>
  <circle cx="360" cy="152" r="40" fill="#2ea043" />
</svg>
